<svg id="Layer_1" data-name="Layer 1" xmlns="http://www.w3.org/2000/svg" xmlns:xlink="http://www.w3.org/1999/xlink" viewBox="0 0 502.26 66.67"><defs><style>.cls-1{fill:url(#Pewter);}.cls-2{fill:url(#Pewter-2);}.cls-3{fill:url(#Pewter-3);}.cls-4{fill:url(#Pewter-4);}.cls-5{fill:#2dab66;}.cls-6{fill:#009ee2;}.cls-7{fill:#e20613;}.cls-8{fill:url(#Pewter-5);}.cls-9{fill:url(#Pewter-6);}.cls-10{fill:url(#Pewter-7);}.cls-11{fill:url(#Pewter-8);}.cls-12{fill:url(#Pewter-9);}.cls-13{font-size:16.7px;fill:#12658c;font-family:Montserrat-Bold, Montserrat;font-weight:700;}.cls-14{letter-spacing:-0.02em;}.cls-15{letter-spacing:-0.01em;}.cls-16{letter-spacing:-0.04em;}.cls-17{letter-spacing:-0.03em;}.cls-18{letter-spacing:-0.01em;}.cls-19{font-size:21.2px;}.cls-20{letter-spacing:-0.05em;}.cls-21{letter-spacing:-0.01em;}.cls-22{letter-spacing:0em;}.cls-23{letter-spacing:-0.01em;}.cls-24{letter-spacing:-0.02em;}.cls-25{letter-spacing:0em;}.cls-26{letter-spacing:-0.02em;}</style><linearGradient id="Pewter" x1="-2.21" y1="-49.11" x2="125.09" y2="56.15" gradientUnits="userSpaceOnUse"><stop offset="0.03" stop-color="#a7a6a2"/><stop offset="0.13" stop-color="#b0b0b1"/><stop offset="0.22" stop-color="#babcc2"/><stop offset="0.35" stop-color="#abaeb4"/><stop offset="0.61" stop-color="#848b8f"/><stop offset="0.72" stop-color="#71797d"/><stop offset="1" stop-color="#999fa4"/></linearGradient><linearGradient id="Pewter-2" x1="-8.98" y1="-40.92" x2="118.32" y2="64.34" xlink:href="#Pewter"/><linearGradient id="Pewter-3" x1="-5.25" y1="-45.43" x2="122.05" y2="59.83" xlink:href="#Pewter"/><linearGradient id="Pewter-4" x1="-11.98" y1="-37.29" x2="115.32" y2="67.97" xlink:href="#Pewter"/><linearGradient id="Pewter-5" x1="-12.32" y1="-36.89" x2="114.98" y2="68.37" xlink:href="#Pewter"/><linearGradient id="Pewter-6" x1="-17.77" y1="-30.29" x2="109.53" y2="74.97" xlink:href="#Pewter"/><linearGradient id="Pewter-7" x1="-23.36" y1="-23.53" x2="103.93" y2="81.73" xlink:href="#Pewter"/><linearGradient id="Pewter-8" x1="-20.95" y1="-26.44" x2="106.35" y2="78.82" xlink:href="#Pewter"/><linearGradient id="Pewter-9" x1="-22.13" y1="-25.02" x2="105.17" y2="80.24" xlink:href="#Pewter"/></defs><path class="cls-1" d="M75.7,11.25Q75.38,13,75,14.82a1.91,1.91,0,0,1-2.54,1.4q-1.64-.61-3.3-1.17a1.92,1.92,0,0,1-1.28-2.22c.23-1.13.44-2.26.63-3.4A1.9,1.9,0,0,1,71,7.94c1.17.38,2.33.78,3.48,1.21A1.9,1.9,0,0,1,75.7,11.25Z" transform="translate(-6.08 -3.16)"/><path class="cls-2" d="M73,22.68c-.4,1.32-.82,2.63-1.28,3.93a1.91,1.91,0,0,1-2.49,1.15c-1.08-.42-2.16-.82-3.26-1.19a1.9,1.9,0,0,1-1.18-2.42c.44-1.26.85-2.53,1.23-3.8a1.9,1.9,0,0,1,2.44-1.25c1.14.38,2.28.8,3.4,1.23A1.92,1.92,0,0,1,73,22.68Z" transform="translate(-6.08 -3.16)"/><path class="cls-3" d="M64.65,7.91c-.18,1.18-.39,2.36-.62,3.54a1.9,1.9,0,0,1-2.31,1.48c-1.29-.3-2.59-.58-3.91-.83a1.9,1.9,0,0,1-1.5-2.24c.22-1.13.42-2.26.59-3.39a1.92,1.92,0,0,1,2.25-1.59c1.36.26,2.7.55,4,.86A1.92,1.92,0,0,1,64.65,7.91Z" transform="translate(-6.08 -3.16)"/><path class="cls-4" d="M62.08,19.28c-.4,1.32-.82,2.63-1.28,3.94a1.92,1.92,0,0,1-2.22,1.24c-1.31-.3-2.62-.57-3.95-.81a1.9,1.9,0,0,1-1.45-2.52c.46-1.27.88-2.54,1.27-3.82A1.9,1.9,0,0,1,56.63,16c1.36.25,2.71.54,4,.85A1.93,1.93,0,0,1,62.08,19.28Z" transform="translate(-6.08 -3.16)"/><path class="cls-5" d="M44.88,67c-.9.82-1.82,1.61-2.75,2.39a1.89,1.89,0,0,1-2.42,0c-.94-.77-1.86-1.57-2.77-2.38a1.92,1.92,0,0,1,.06-2.9c.9-.74,1.78-1.5,2.65-2.27a1.89,1.89,0,0,1,2.52,0c.87.77,1.75,1.53,2.65,2.26A1.91,1.91,0,0,1,44.88,67Z" transform="translate(-6.08 -3.16)"/><path class="cls-5" d="M36.49,59.2c-.9.8-1.81,1.57-2.75,2.32a1.92,1.92,0,0,1-2.6-.18q-1.42-1.52-2.79-3.09a1.91,1.91,0,0,1,.24-2.74c.9-.72,1.78-1.46,2.65-2.22a1.89,1.89,0,0,1,2.68.19c.88,1,1.78,2,2.7,3A1.91,1.91,0,0,1,36.49,59.2Z" transform="translate(-6.08 -3.16)"/><path class="cls-6" d="M15.79,26.57c-1.09.37-2.16.77-3.22,1.18a1.91,1.91,0,0,1-2.5-1.16c-.45-1.3-.88-2.61-1.27-3.92a1.93,1.93,0,0,1,1.14-2.35c1.11-.43,2.23-.83,3.36-1.22a1.91,1.91,0,0,1,2.44,1.26c.38,1.27.79,2.53,1.23,3.79A1.9,1.9,0,0,1,15.79,26.57Z" transform="translate(-6.08 -3.16)"/><path class="cls-6" d="M12.58,15.06c-1.09.36-2.17.74-3.24,1.15a1.92,1.92,0,0,1-2.55-1.4c-.25-1.19-.48-2.39-.68-3.58a1.89,1.89,0,0,1,1.21-2.1c1.12-.42,2.25-.81,3.4-1.18A1.9,1.9,0,0,1,13.2,9.44c.19,1.14.4,2.27.64,3.41A1.92,1.92,0,0,1,12.58,15.06Z" transform="translate(-6.08 -3.16)"/><path class="cls-7" d="M28.85,50c-.9.8-1.82,1.58-2.76,2.32a1.91,1.91,0,0,1-2.75-.37,96.43,96.43,0,0,1-5.62-8.65A96.88,96.88,0,0,1,13,34.09a1.92,1.92,0,0,1,1.05-2.57c1.11-.44,2.24-.84,3.38-1.22a1.92,1.92,0,0,1,2.37,1,90.74,90.74,0,0,0,4.23,8.27c1.57,2.71,3.26,5.32,5.05,7.8A1.91,1.91,0,0,1,28.85,50Z" transform="translate(-6.08 -3.16)"/><path class="cls-8" d="M52.88,5.9c-.18,1.18-.39,2.37-.63,3.55A1.91,1.91,0,0,1,50.16,11a91.81,91.81,0,0,0-9.28-.47,89.55,89.55,0,0,0-9.31.48,1.92,1.92,0,0,1-2.09-1.53c-.24-1.18-.45-2.36-.64-3.55a1.94,1.94,0,0,1,1.71-2.2,98.79,98.79,0,0,1,20.63,0A1.92,1.92,0,0,1,52.88,5.9Z" transform="translate(-6.08 -3.16)"/><path class="cls-9" d="M50.16,17.39c-.44,1.37-.92,2.73-1.45,4.08a1.92,1.92,0,0,1-1.93,1.19q-2.93-.22-5.9-.23T35,22.66A1.9,1.9,0,0,1,33,21.47c-.53-1.35-1-2.71-1.46-4.07a1.92,1.92,0,0,1,1.65-2.5q3.78-.35,7.65-.34c2.57,0,5.12.11,7.63.34A1.91,1.91,0,0,1,50.16,17.39Z" transform="translate(-6.08 -3.16)"/><path class="cls-10" d="M43.46,26.54a1.92,1.92,0,0,1,1.63,2.82c-.41.76-.82,1.51-1.25,2.25S43,33.1,42.51,33.83a1.92,1.92,0,0,1-3.26,0q-.68-1.09-1.32-2.22c-.43-.74-.85-1.49-1.25-2.25a1.91,1.91,0,0,1,1.62-2.82c.86,0,1.72,0,2.58,0S42.6,26.51,43.46,26.54Z" transform="translate(-6.08 -3.16)"/><path class="cls-11" d="M67.68,31.52a1.92,1.92,0,0,1,1,2.57A99.35,99.35,0,0,1,64,43.28,100,100,0,0,1,58.41,52a1.92,1.92,0,0,1-2.76.37c-.94-.75-1.85-1.52-2.75-2.32a1.93,1.93,0,0,1-.28-2.57,89.58,89.58,0,0,0,5.07-7.83,90.8,90.8,0,0,0,4.23-8.27,1.92,1.92,0,0,1,2.36-1.05C65.43,30.67,66.56,31.08,67.68,31.52Z" transform="translate(-6.08 -3.16)"/><path class="cls-12" d="M56.36,28.13a1.93,1.93,0,0,1,1.34,2.68c-1.07,2.29-2.24,4.54-3.53,6.77S51.51,42,50.06,44a1.92,1.92,0,0,1-3,.19q-1.45-1.61-2.8-3.3a1.92,1.92,0,0,1-.06-2.27q1.65-2.43,3.14-5t2.76-5.22a1.9,1.9,0,0,1,2-1.08C53.54,27.57,55,27.83,56.36,28.13Z" transform="translate(-6.08 -3.16)"/><path class="cls-5" d="M53.43,58.25c-.9,1-1.82,2.07-2.75,3.07a1.93,1.93,0,0,1-2.61.19c-.93-.75-1.85-1.52-2.75-2.31a1.92,1.92,0,0,1-.14-2.75c.91-1,1.8-2,2.67-3a1.9,1.9,0,0,1,2.69-.19q1.29,1.14,2.64,2.22A1.91,1.91,0,0,1,53.43,58.25Z" transform="translate(-6.08 -3.16)"/><path class="cls-5" d="M45.06,50.5c-.9,1.06-1.82,2.08-2.77,3.09a1.92,1.92,0,0,1-2.79,0c-1-1-1.88-2-2.78-3.09a1.91,1.91,0,0,1,0-2.55c.91-1,1.8-2,2.66-3a1.9,1.9,0,0,1,2.92,0c.86,1,1.76,2,2.67,3A1.9,1.9,0,0,1,45.06,50.5Z" transform="translate(-6.08 -3.16)"/><path class="cls-7" d="M37.49,40.91c-.91,1.13-1.84,2.23-2.81,3.3a1.91,1.91,0,0,1-3-.19q-2.19-3.09-4.11-6.44t-3.53-6.77a1.91,1.91,0,0,1,1.34-2.68c1.4-.3,2.82-.56,4.25-.78a1.9,1.9,0,0,1,2,1.08q1.27,2.64,2.76,5.22c1,1.71,2,3.38,3.14,5A1.92,1.92,0,0,1,37.49,40.91Z" transform="translate(-6.08 -3.16)"/><path class="cls-6" d="M27.12,23.65c-1.33.24-2.64.51-3.95.81A1.91,1.91,0,0,1,21,23.22q-.69-1.95-1.29-3.93a1.93,1.93,0,0,1,1.4-2.42c1.34-.32,2.69-.61,4.05-.86a1.91,1.91,0,0,1,2.19,1.3c.39,1.28.81,2.56,1.27,3.82A1.9,1.9,0,0,1,27.12,23.65Z" transform="translate(-6.08 -3.16)"/><path class="cls-6" d="M23.91,12.1q-2,.38-3.9.84a1.9,1.9,0,0,1-2.31-1.48c-.24-1.18-.44-2.36-.63-3.54a1.92,1.92,0,0,1,1.46-2.17c1.34-.31,2.68-.6,4-.86a1.92,1.92,0,0,1,2.25,1.58q.25,1.71.6,3.39A1.9,1.9,0,0,1,23.91,12.1Z" transform="translate(-6.08 -3.16)"/><text class="cls-13" transform="translate(94.8 26.21)">RƏQƏMSAL İNKİŞAF <tspan class="cls-14" x="183.51" y="0">V</tspan><tspan x="195.59" y="0">Ə NƏQLİ</tspan><tspan class="cls-15" x="270.75" y="0">Y</tspan><tspan class="cls-16" x="281.94" y="0">Y</tspan><tspan class="cls-17" x="292.51" y="0">A</tspan><tspan x="304.72" y="0">T NAZİRLİ</tspan><tspan class="cls-18" x="390.57" y="0">Y</tspan><tspan x="401.75" y="0">İ</tspan><tspan class="cls-19"><tspan x="0" y="25.44">ELE</tspan><tspan class="cls-20" x="41.25" y="25.44">K</tspan><tspan x="55.92" y="25.44">TRON </tspan><tspan class="cls-21" x="125.63" y="25.44">T</tspan><tspan class="cls-22" x="138.52" y="25.44">ƏH</tspan><tspan class="cls-23" x="172.97" y="25.44">L</tspan><tspan x="185.58" y="25.44">Ü</tspan><tspan class="cls-24" x="202.29" y="25.44">K</tspan><tspan class="cls-25" x="217.45" y="25.44">ƏSİZLİK </tspan><tspan class="cls-26" x="310.92" y="25.44">X</tspan><tspan x="325.59" y="25.44">İDM</tspan><tspan class="cls-21" x="370.3" y="25.44">Ə</tspan><tspan x="387.4" y="25.44">Tİ</tspan></tspan></text></svg>